<?xml version="1.0" encoding="windows-1252"?>
<!-- Generator: Adobe Illustrator 19.0.0, SVG Export Plug-In . SVG Version: 6.00 Build 0)  -->
<svg xmlns="http://www.w3.org/2000/svg" xmlns:xlink="http://www.w3.org/1999/xlink" version="1.1" id="Layer_1" x="0px" y="0px" viewBox="0 0 512 512" style="enable-background:new 0 0 512 512;" xml:space="preserve" width="512" height="512">
<g id="XMLID_763_">
	<path id="XMLID_1147_" style="fill:#82F4BB;" d="M156.535,3.648l63.416,140.339l-32.673,14.764L123.862,18.412   c-1.41-3.12-0.023-6.793,3.097-8.203l21.373-9.658C151.453-0.858,155.125,0.528,156.535,3.648z"/>
	<path id="XMLID_764_" style="fill:#FBDBB7;" d="M322.655,71.47C313.648,29.613,291.497,0,265.571,0s-48.078,29.613-57.084,71.47   H322.655z"/>
	<path id="XMLID_765_" style="fill:#FFEDDC;" d="M334.17,90.508H177.83V68.984c0-10.411,7.745-19.197,18.074-20.503L310.911,33.94   c12.344-1.561,23.258,8.06,23.258,20.503V90.508z"/>
	<path id="XMLID_766_" style="fill:#FBDBB7;" d="M355.135,87.293v52.027H156.865v-32.177c0-10.416,7.739-19.199,18.072-20.501   l156.937-19.85C344.223,65.232,355.135,74.852,355.135,87.293z"/>
	<path id="XMLID_767_" style="fill:#FFEDDC;" d="M378.585,178.761H133.415v-32.605c0-10.411,7.745-19.197,18.074-20.503   L355.326,99.88c12.344-1.561,23.258,8.06,23.258,20.503V178.761z"/>
	<path id="XMLID_768_" style="fill:#F4BC8E;" d="M384.563,199.003l-2.253,17.731L345.897,503.31c-0.63,4.96-4.846,8.69-9.858,8.69   H175.961c-5.012,0-9.227-3.73-9.858-8.69l-36.413-286.575l-2.253-17.731H384.563z"/>
	<polygon id="XMLID_769_" style="fill:#EFA66F;" points="384.563,199.003 382.311,216.735 129.689,216.735 127.437,199.003  "/>
	<path id="XMLID_1140_" style="fill:#F4BC8E;" d="M396.086,202.098H115.914c-5.707,0-10.333-4.626-10.333-10.333v-23.867   c0-5.707,4.626-10.333,10.333-10.333h280.171c5.707,0,10.333,4.626,10.333,10.333v23.867   C406.419,197.472,401.792,202.098,396.086,202.098z"/>
	<path id="XMLID_770_" style="fill:#FFEDDC;" d="M375.596,269.541l-22.395,176.281l-7.302,57.492   c-0.628,4.961-4.852,8.687-9.863,8.687H175.964c-5.011,0-9.235-3.726-9.863-8.687l-7.302-57.492l-22.395-176.281H375.596z"/>
	<path id="XMLID_771_" style="fill:#A86552;" d="M353.201,445.821l-7.302,57.492c-0.628,4.961-4.852,8.687-9.863,8.687H175.964   c-5.011,0-9.235-3.726-9.863-8.687l-7.302-57.492H353.201z"/>
	<g id="XMLID_772_">
		<circle id="XMLID_1137_" style="fill:#82F4BB;" cx="256" cy="319.242" r="66.233"/>
		
			<ellipse id="XMLID_1136_" transform="matrix(-0.7071 -0.7071 0.7071 -0.7071 210.2983 728.3724)" style="fill:#BE7560;" cx="256" cy="320.632" rx="23.778" ry="32.898"/>
		<g id="XMLID_773_">
			<path id="XMLID_774_" style="fill:#915040;" d="M283.465,304.089l-44.009,44.009c-2.524-0.896-4.811-2.297-6.717-4.203     c-1.916-1.916-3.307-4.193-4.203-6.727l44.009-43.999c2.534,0.886,4.811,2.287,6.717,4.203     C281.167,299.278,282.568,301.565,283.465,304.089z"/>
		</g>
	</g>
</g>















</svg>